<svg width="48" height="48" viewBox="0 0 48 48" fill="none" xmlns="http://www.w3.org/2000/svg">
<g clip-path="url(#clip0_603_14)">
<path d="M38 6H10C7.79086 6 6 7.79086 6 10V38C6 40.2091 7.79086 42 10 42H38C40.2091 42 42 40.2091 42 38V10C42 7.79086 40.2091 6 38 6ZM17 35C17 35.5523 16.5523 36 16 36H13C12.4477 36 12 35.5523 12 35V21C12 20.4477 12.4477 20 13 20H16C16.5523 20 17 20.4477 17 21V35ZM14.5 18C12.8431 18 11.5 16.6569 11.5 15C11.5 13.3431 12.8431 12 14.5 12C16.1569 12 17.5 13.3431 17.5 15C17.5 16.6569 16.1569 18 14.5 18ZM36 35C36 35.5523 35.5523 36 35 36H32C31.4477 36 31 35.5523 31 35V27.5C31 25.8431 29.6569 24.5 28 24.5C26.3431 24.5 25 25.8431 25 27.5V35C25 35.5523 24.5523 36 24 36H21C20.4477 36 20 35.5523 20 35V21C20 20.4477 20.4477 20 21 20H24C24.5523 20 25 20.4477 25 21V22.2C26.2165 20.3488 28.354 19.3185 30.56 19.52C33.7152 19.909 36.0649 22.6215 36 25.8V35Z" fill="#333333"/>
</g>
<defs>
<clipPath id="clip0_603_14">
<rect width="48" height="48" fill="white"/>
</clipPath>
</defs>
</svg>
